HIERARCHY
ROOT pelvis
{
  OFFSET 0 100 0
  CHANNELS 6 Xposition Yposition Zposition Zrotation Xrotation Yrotation
  JOINT pelvis_right_femur
  {
    OFFSET -10.78128 -3.44521 -0.5502486
    CHANNELS 3 Zrotation Xrotation Yrotation
    JOINT right_femur_tibia
    {
      OFFSET -0.8047443 -44.0398 -0.1307829
      CHANNELS 3 Zrotation Xrotation Yrotation
      JOINT right_tibia_foot
      {
        OFFSET 3.006224 -47.83518 -5
        CHANNELS 3 Zrotation Xrotation Yrotation
        End Site
        {
          OFFSET 0 -5 15
        }
      }
    }
  }
  JOINT pelvis_left_femur
  {
    OFFSET 10.78128 -3.44521 -0.5502486
    CHANNELS 3 Zrotation Xrotation Yrotation
    JOINT left_femur_tibia
    {
      OFFSET 0.8047443 -44.0398 -0.1307829
      CHANNELS 3 Zrotation Xrotation Yrotation
      JOINT left_tibia_foot
      {
        OFFSET -4.370144 -48.10324 -4.275266
        CHANNELS 3 Zrotation Xrotation Yrotation
        End Site
        {
          OFFSET 0 -5 15
        }
      }
    }
  }
  JOINT pelvis_spine1
  {
    OFFSET 0 6.468898 -3.129235
    CHANNELS 3 Zrotation Xrotation Yrotation
    JOINT spine1
    {
      OFFSET 0 23.15396 4.99043
      CHANNELS 3 Zrotation Xrotation Yrotation
      JOINT spine2
      {
        OFFSET 0 20.79997 -5.064912
        CHANNELS 3 Zrotation Xrotation Yrotation
        JOINT neck
        {
          OFFSET 0 14.38658 9.616178
          CHANNELS 3 Zrotation Xrotation Yrotation
          End Site
          {
            OFFSET 0 20 0
          }
        }
      }
      JOINT right_manubrium
      {
        OFFSET -5.722621 16.35077 3.967754
        CHANNELS 3 Zrotation Xrotation Yrotation
        JOINT right_clavicle
        {
          OFFSET -13.16364 1.694482 -4.693211
          CHANNELS 3 Zrotation Xrotation Yrotation
          JOINT right_humerus
          {
            OFFSET -28.5034 -0.3100689 -2.792744
            CHANNELS 3 Zrotation Xrotation Yrotation
            JOINT right_radius
            {
              OFFSET -25.15693 0.02248979 -1.271978
              CHANNELS 3 Zrotation Xrotation Yrotation
              End Site
              {
                OFFSET -15 0 0
              }
            }
          }
        }
      }
      JOINT left_manubrium
      {
        OFFSET 5.722621 16.35077 3.967754
        CHANNELS 3 Zrotation Xrotation Yrotation
        JOINT left_clavicle
        {
          OFFSET 13.16364 1.694482 -4.693211
          CHANNELS 3 Zrotation Xrotation Yrotation
          JOINT left_humerus
          {
            OFFSET 29.39168 -1.063119 -2.237045
            CHANNELS 3 Zrotation Xrotation Yrotation
            JOINT left_radius
            {
              OFFSET 24.59957 -0.9528479 0.9047498
              CHANNELS 3 Zrotation Xrotation Yrotation
              End Site
              {
                OFFSET 15 -0 -0
              }
            }
          }
        }
      }
    }
  }
}
MOTION
Frames: 7
Frame Time: 0.0416666666667
-301.5739 117.3505 -343.5312 5.006244 -3.009228 58.13258 3.030651 17.6073 -2.724492 -0 12.23709 -0 -8.122384 -16.58758 1.123825 1.034302 -24.47195 -7.183956 -0 14.62817 -0 -5.13483 -6.637682 20.49468 -0.6853658 1.069442 5.721855 -1.310412 7.175213 -1.802638 1.197625 24.98607 7.045718 4.424249 -15.3328 6.706707 2.317366 -19.11639 10.20626 77.13284 32.76128 -1.10227 -0 0 18.24178 -25.25772 10.67908 14.44234 6.248061 -16.4972 -2.55821 -93.62126 20.12759 22.46422 0 0 -4.627877 4.976311 15.91347 5.924138
-296.2769 117.3228 -341.0022 4.973192 -3.06363 57.50861 3.030651 17.6073 -2.724492 -0 12.23709 -0 -8.122384 -16.58758 1.123825 1.034302 -24.47195 -7.183956 -0 14.62817 -0 -5.13483 -6.637682 20.49468 -0.6853658 1.069442 5.721855 -1.310412 7.175213 -1.802638 1.197625 24.98607 7.045718 4.424249 -15.3328 6.706707 2.317366 -19.11639 10.20626 77.13284 32.76128 -1.10227 -0 0 18.24178 -25.25772 10.67908 14.44234 6.248061 -16.4972 -2.55821 -93.62126 20.12759 22.46422 0 0 -4.627877 4.976311 15.91347 5.924138
-291.0077 117.295 -338.4156 4.939546 -3.117668 56.88458 3.030651 17.6073 -2.724492 -0 12.23709 -0 -8.122384 -16.58758 1.123825 1.034302 -24.47195 -7.183956 -0 14.62817 -0 -5.13483 -6.637682 20.49468 -0.6853658 1.069442 5.721855 -1.310412 7.175213 -1.802638 1.197625 24.98607 7.045718 4.424249 -15.3328 6.706707 2.317366 -19.11639 10.20626 77.13284 32.76128 -1.10227 -0 0 18.24178 -25.25772 10.67908 14.44234 6.248061 -16.4972 -2.55821 -93.62126 20.12759 22.46422 0 0 -4.627877 4.976311 15.91347 5.924138
-285.7672 117.2673 -335.7715 4.905312 -3.171338 56.26048 3.030651 17.6073 -2.724492 -0 12.23709 -0 -8.122384 -16.58758 1.123825 1.034302 -24.47195 -7.183956 -0 14.62817 -0 -5.13483 -6.637682 20.49468 -0.6853658 1.069442 5.721855 -1.310412 7.175213 -1.802638 1.197625 24.98607 7.045718 4.424249 -15.3328 6.706707 2.317366 -19.11639 10.20626 77.13284 32.76128 -1.10227 -0 0 18.24178 -25.25772 10.67908 14.44234 6.248061 -16.4972 -2.55821 -93.62126 20.12759 22.46422 0 0 -4.627877 4.976311 15.91347 5.924138
-280.5557 117.2396 -333.0705 4.870492 -3.224632 55.63632 3.030651 17.6073 -2.724492 -0 12.23709 -0 -8.122384 -16.58758 1.123825 1.034302 -24.47195 -7.183956 -0 14.62817 -0 -5.13483 -6.637682 20.49468 -0.6853658 1.069442 5.721855 -1.310412 7.175213 -1.802638 1.197625 24.98607 7.045718 4.424249 -15.3328 6.706707 2.317366 -19.11639 10.20626 77.13284 32.76128 -1.10227 -0 0 18.24178 -25.25772 10.67908 14.44234 6.248061 -16.4972 -2.55821 -93.62126 20.12759 22.46422 0 0 -4.627877 4.976311 15.91347 5.924138
-275.3741 117.2118 -330.3126 4.83509 -3.277544 55.0121 3.030651 17.6073 -2.724492 -0 12.23709 -0 -8.122384 -16.58758 1.123825 1.034302 -24.47195 -7.183956 -0 14.62817 -0 -5.13483 -6.637682 20.49468 -0.6853658 1.069442 5.721855 -1.310412 7.175213 -1.802638 1.197625 24.98607 7.045718 4.424249 -15.3328 6.706707 2.317366 -19.11639 10.20626 77.13284 32.76128 -1.10227 -0 0 18.24178 -25.25772 10.67908 14.44234 6.248061 -16.4972 -2.55821 -93.62126 20.12759 22.46422 0 0 -4.627877 4.976311 15.91347 5.924138
-270.2229 117.1841 -327.4984 4.799112 -3.330068 54.38781 3.030651 17.6073 -2.724492 -0 12.23709 -0 -8.122384 -16.58758 1.123825 1.034302 -24.47195 -7.183956 -0 14.62817 -0 -5.13483 -6.637682 20.49468 -0.6853658 1.069442 5.721855 -1.310412 7.175213 -1.802638 1.197625 24.98607 7.045718 4.424249 -15.3328 6.706707 2.317366 -19.11639 10.20626 77.13284 32.76128 -1.10227 -0 0 18.24178 -25.25772 10.67908 14.44234 6.248061 -16.4972 -2.55821 -93.62126 20.12759 22.46422 0 0 -4.627877 4.976311 15.91347 5.924138
